<svg id="Capa_1" data-name="Capa 1" xmlns="http://www.w3.org/2000/svg" viewBox="0 0 420 420"><defs><style>.cls-1{fill:#fff;}</style></defs><title>cart</title><circle class="cls-1" cx="210" cy="210" r="210"/><path d="M302.74,321.37a18.64,18.64,0,1,0,5.46-13.17A17.93,17.93,0,0,0,302.74,321.37Z" transform="translate(-27.54 -27.54)"/><path d="M355.86,156.48a8.93,8.93,0,0,0-6.55-2.77H174.53c-.1-.68-.32-1.91-.66-3.71s-.61-3.22-.8-4.29a25.63,25.63,0,0,0-1.09-3.86,11.91,11.91,0,0,0-1.89-3.56,9.27,9.27,0,0,0-2.91-2.26,8.87,8.87,0,0,0-4.15-.94H125.77a9.31,9.31,0,0,0,0,18.62h29.69l25.76,119.78c-.2.39-1.19,2.23-3,5.53s-3.22,6.18-4.29,8.66a16.13,16.13,0,0,0-1.6,5.75,9.44,9.44,0,0,0,9.32,9.31h149a9.32,9.32,0,0,0,0-18.63H196.79q3.5-7,3.49-9.31a15.91,15.91,0,0,0-.36-3.2c-.24-1.16-.53-2.45-.87-3.86s-.56-2.45-.66-3.13l151.94-17.75a9,9,0,0,0,6-3.13,9.19,9.19,0,0,0,2.33-6.19V163A9,9,0,0,0,355.86,156.48Z" transform="translate(-27.54 -27.54)"/><path d="M172.34,321.37a18.64,18.64,0,1,0,5.46-13.17A17.93,17.93,0,0,0,172.34,321.37Z" transform="translate(-27.54 -27.54)"/></svg>