<svg id="Icons" xmlns="http://www.w3.org/2000/svg" viewBox="0 0 28 26"><defs><style>.cls-1{fill:#fff;}</style></defs><title>mobOptions</title><path class="cls-1" d="M3,8H19.1A4,4,0,0,0,23,11a4.08,4.08,0,0,0,3.9-3H29a.94.94,0,0,0,1-1,.94.94,0,0,0-1-1H26.9A4,4,0,0,0,23,3a4.08,4.08,0,0,0-3.9,3H3A.94.94,0,0,0,2,7,.94.94,0,0,0,3,8Z" transform="translate(-2 -3)"/><path class="cls-1" d="M29,15H15.9A4,4,0,0,0,12,12a4.08,4.08,0,0,0-3.9,3H3a1,1,0,0,0,0,2H8.1A4,4,0,0,0,12,20a4.08,4.08,0,0,0,3.9-3H29a1,1,0,0,0,0-2Z" transform="translate(-2 -3)"/><path class="cls-1" d="M29,24H26.9A4,4,0,0,0,23,21a4.08,4.08,0,0,0-3.9,3H3a1,1,0,0,0,0,2H19.1A4,4,0,0,0,23,29a4.08,4.08,0,0,0,3.9-3H29a1,1,0,0,0,0-2Z" transform="translate(-2 -3)"/></svg>