<svg id="Layer_1" data-name="Layer 1" xmlns="http://www.w3.org/2000/svg" viewBox="0 0 128 128"><defs><style>.cls-1{fill:#fff;}</style></defs><title>profile</title><circle class="cls-1" cx="64" cy="64" r="64"/><path d="M77.4,75.3A3.89,3.89,0,0,1,74,71.4V65.6a14.76,14.76,0,0,0,3.8-8.7l.2-3.2a6.28,6.28,0,0,0,2.7-3.8c.7-2.5.1-4.7-1.5-4.9h-.7l.4-5.9A13.76,13.76,0,0,0,65.3,24H62.8A14,14,0,0,0,49,39.1l.4,6a1.27,1.27,0,0,0-.6-.1c-1.6.2-2.2,2.4-1.5,4.9a6.33,6.33,0,0,0,2.8,3.9l.2,3.1A14.08,14.08,0,0,0,54,65.6v5.8a3.89,3.89,0,0,1-3.4,3.9C41.8,76.8,27,83.2,27,90v14h74V90C101,83.2,86.2,76.8,77.4,75.3Z"/></svg>